<?xml version="1.0" encoding="UTF-8"?>
<svg id="Calque_2" data-name="Calque 2" xmlns="http://www.w3.org/2000/svg" xmlns:xlink="http://www.w3.org/1999/xlink" viewBox="0 0 339.07 361.2">
  <defs>
    <style>
      .cls-1 {
        fill: url(#Dégradé_sans_nom_2);
      }

      .cls-1, .cls-2, .cls-3, .cls-4, .cls-5, .cls-6, .cls-7, .cls-8, .cls-9, .cls-10, .cls-11, .cls-12, .cls-13, .cls-14, .cls-15, .cls-16, .cls-17, .cls-18, .cls-19, .cls-20, .cls-21, .cls-22, .cls-23, .cls-24, .cls-25 {
        stroke-width: 0px;
      }

      .cls-2 {
        fill: #fac539;
      }

      .cls-3 {
        fill: #472720;
      }

      .cls-4 {
        fill: #4d4223;
      }

      .cls-5 {
        fill: #76823c;
      }

      .cls-6 {
        fill: #4b3625;
      }

      .cls-7 {
        fill: #56572c;
      }

      .cls-8 {
        fill: #5a6733;
      }

      .cls-9 {
        fill: #554229;
      }

      .cls-10 {
        fill: #3ca0bd;
      }

      .cls-11 {
        fill: #094f6c;
      }

      .cls-12 {
        fill: #0d6a8a;
      }

      .cls-13 {
        fill: #1f85ab;
      }

      .cls-14 {
        fill: #115f88;
      }

      .cls-15 {
        fill: #d43847;
      }

      .cls-16 {
        fill: #a3b173;
      }

      .cls-17 {
        fill: #bd293e;
      }

      .cls-18 {
        fill: #65773b;
      }

      .cls-19 {
        fill: #e3e3e0;
      }

      .cls-20 {
        fill: #e9a518;
      }

      .cls-21 {
        fill: #e7951f;
      }

      .cls-22 {
        fill: #f5ece9;
      }

      .cls-23 {
        fill: #f5d66a;
      }

      .cls-24 {
        fill: #6b3b2f;
      }

      .cls-25 {
        fill: #033647;
      }
    </style>
    <linearGradient id="Dégradé_sans_nom_2" data-name="Dégradé sans nom 2" x1="302.27" y1="182.62" x2="247.46" y2="288.81" gradientUnits="userSpaceOnUse">
      <stop offset="0" stop-color="#c42e40"/>
      <stop offset="1" stop-color="#9c182f"/>
    </linearGradient>
  </defs>
  <g id="Calque_1-2" data-name="Calque 1">
    <g>
      <path class="cls-19" d="M71.22,103.1c-14.93,4.38-26.87,11.76-37.5,23-8.5,8.99-13.23,16.6-18,28-3.23,7.72-5.84,15.79-7.5,24-5.32,26.23-3.6,48.74,5,74,12.37,36.35,40.24,69.05,74.25,87,61,32.19,133.81,17.22,180.25-32.5,22.47-24.05,37.92-55.73,42-88.5,6.64,5.46,9.6-2.76,6,15.25-4.76,23.82-24.16,58.36-40.5,76.5-25.74,28.57-54.22,41.91-91.75,48.75-8.49.81-16.75,1.12-24.5,1.5-.38.02-.12.98-.5,1-8.73.39-33.32-.2-37-6-29.93-5.56-60.95-23.66-81.25-46.25-11.74-13.07-23.11-31.65-29.5-48-2.07-5.3-13.1-39.23-10.25-41.75,6.34.54,2.9-11.69,3.75-22.75.23-2.95,1.45-11.97,2-15,1.74-9.58,5.42-18.39,8.5-27.5.06-.19-.65-2.14,0-4,7.86-22.59,25.74-35.63,46.75-44.75,3.57-.29,8.95-4.15,9.75-2Z"/>
      <path class="cls-19" d="M338.72,62.1c-.88-10.26-16.95-3.73-22.25,0-6.57,4.63-16.64,22.81-30.5,20.5-6.36-1.06-9.94-8.31,1-15.5,6.73-4.42,13.75-3.39,14.25-13.5l.25,22.5c4.41-3.55,10.13-11.67,14-14.5,9.35-6.84,26.23-9.09,23.25.5Z"/>
      <path class="cls-10" d="M81.22,101.6c-14.87,2.54-26.24,7.85-37,18.5-4.53,1.07-9.22,12.83-10.5,6,10.63-11.24,22.57-18.62,37.5-23,2.91-.85,8.18-2.7,10-1.5Z"/>
      <path class="cls-21" d="M73.72,238.1c17.84,2.79,34.3-.77,50.75-8,1.56-.14,5.09,1.44,7.25,2,.18.05-.69.54,3.5,1.5-8.71,3.88-17.79,7.03-27,9.5-1.22.33-2.82,1.23-4,1.5-2.65.61-10.45,2.34-12.5,2.5-17.43,1.36-39.89-5.95-52.75-18-8.48-7.95-13.06-18.73-14.75-30,6.07-1.01,4.07,4.85,8,12.75,6.99,14.04,26.14,26.01,41.5,26.25Z"/>
      <g>
        <path class="cls-22" d="M301.22,52.6c-.08-6.24-3.43-15.29-10.25-17-10.95-2.75-26.42,12.31-37.5,4.5-10.66-7.52,6.02-21.54-8-33.5-3.76-3.2-12.44-6.28-17.25-5.5-10.52,1.71-3.8,14.03-2.5,17.5,4.25,11.34,7.6,12.55-8.5,24.75,7.56,8.38,17.64,12,28.75,12.75,14.64.99,27.25-3.52,28.25-2.5-8.19,2.75-16.76,13.89-19.25,15.5-7.39,4.78-14.43,1.31-22.25,0-1.01-.17-1.99-.12-2.75-1-3.48,1,10.07,13.69,11.5,15,14.48,13.28,36.65,20.51,25.75,33.5-2.39.19-5.36,2.23-12.25,0-6.6-2.14-28.28-23.85-31-23.5-.25.03-1.57,1.59-1.75,2-3.41,7.77,17.84,30.21,21,45,2.15,10.07,1.74,19.85-9.5,23.5-9.78,3.18-18.56.02-19.5,1.25,25.51,18,17.48,32.92-10,39-2.11,15.23-8.69,25.83-25.5,24.75-7.64-7.33-16-15.37-18.5-26.25-1.62-7.05-3.63-39.12,7.25-40.25,15,3.02,13.64-5.19,16.5-6.5,4.57-2.1,7.29,3.48,13.5-7.5,1.97,0,4.92.04,6.75-.5,4.88-1.45,7.67-2.51,7.5-8.25-.24-8.36-7.04-10.95-8-12-.06-.07.14-1.12-.5-1.75-5.13-5.1-4.2-5.24-11.5-7.5-.46-.14-4.12-.15-4-1,5.7-5.31,6.98-.36,15.5-3.5,2.82-1.04,5.5-1.67,4.5-8.75-1.11-7.84-8.23-8.81-8.75-9.25-1.5-1.26-.04-8.23-8.5-3.5-4.41-7.3-10.97-5.06-17-1l-1.25-.5c-3.08-4.33-8.52-5.59-13.5-5.5-2.55.05-9.31,1.6-12,2.5-.24.08-.66-.99-2.75.5-2.74,1.95-9.64,11.34-6.25,16.75-8.8-.45-6.16,3.14-8,5.25-1.67,1.91-6.24,1.88-9,3.5-4.41,2.6-6.16,9.08-3.5,13.5.9,1.49,3.42,2.63,5,3.5-3.43,7.06-6.97,9.22-4.5,15,4.74,11.1,6.93,13.16,17.25,8,4.08,8.22,14.8,18.51,16.75,22,.95,1.69,1.66,3.5,2.5,5.25.52,22.82-2.49,38.16-22.5,51.25-2.16-.56-5.69-2.14-7.25-2-16.45,7.23-32.91,10.79-50.75,8-48.87-7.63-57.32-56.42-29.5-91.75-8.43-.65-16.08,17.96-18,25-1.32,4.85-1.44,12.75-3,13.75-.75-26,1.8-45.99,21-65,10.76-10.65,22.13-15.96,37-18.5,5.05-.86,10.05-.61,15-1.75,3.98-55.72,74.38-89.24,120.25-56.75,25.58-17.67-.68-25.14,5.75-38.75,3.42-7.23,15.38-3.98,20.75-.75,1.98,1.19,6.1,5.82,6.5,6,4.34,1.96,27.92,1.6,42.75,19.25,4.46,5.31,10.52,17.04,9,23.75Z"/>
        <g>
          <path class="cls-21" d="M73.72,238.1c-15.36-.24-34.51-12.21-41.5-26.25-3.93-7.9-1.93-13.76-8-12.75-.66-4.41-.87-9.53-1-14,1.56-1,1.68-8.9,3-13.75,1.92-7.04,9.57-25.65,18-25-27.82,35.33-19.37,84.12,29.5,91.75Z"/>
          <path class="cls-20" d="M271.97,28.6c3.64-1.1,4.85,4.09,2,5-3.58,1.14-4.55-4.23-2-5Z"/>
          <g>
            <path class="cls-20" d="M212.97,88.1c7.27-2.04,8.08,9.13,2,9.5-5.51.34-6.27-8.3-2-9.5Z"/>
            <path class="cls-20" d="M77.47,121.1c4.56-1.32,4.27,6.9-.5,5-1.87-.74-1.1-4.54.5-5Z"/>
          </g>
          <g>
            <path class="cls-10" d="M68.22,128.1c-1.96,1.8-6.98,5.53-8,7.25-5.98,10.11,4.84,13.81-15,10,7.06-5.56,14.86-13.44,23-17.25Z"/>
            <path class="cls-10" d="M68.22,128.1c.08-.04.58-1.62,1.5-.75-.68,1.01-1.44.69-1.5.75Z"/>
          </g>
        </g>
      </g>
      <g>
        <g>
          <path class="cls-20" d="M274.22,53.6c1.28.69-5.4,8.04-7.5,10.25-8.74,9.17-13.87,13.34-27.25,10.25-1.37,1.02,1.9,5.56,1,6-.77.37-14.39-12.56-7.75-11,7.82,1.31,14.86,4.78,22.25,0,2.49-1.61,11.06-12.75,19.25-15.5Z"/>
          <path class="cls-21" d="M267.22,116.6c5.46-.45-2.46,4.63-4.75,5-6.03.97-13.91-5.34-18.5-9,1.73-1.68-8.28-10.04-9-10-1.48.09-9.26,13.48-12.75-7.5.18-.41,1.5-1.97,1.75-2,2.72-.35,24.4,21.36,31,23.5,6.89,2.23,9.86.19,12.25,0Z"/>
          <path class="cls-21" d="M233.72,163.6c11.24-3.65,11.65-13.43,9.5-23.5,4.11-3.15,4.39,13.83,0,20.75-2.22,3.5-8.62,7.24-12.75,7.75-.6.07-11.44-.78-12-1-8.35-3.28,13.4-.33,15.25-4Z"/>
          <g>
            <path class="cls-21" d="M301.22,52.6c0,.33.02.67,0,1-.5,10.11-7.52,9.08-14.25,13.5-10.94,7.19-7.36,14.44-1,15.5,13.86,2.31,23.93-15.87,30.5-20.5,5.3-3.73,21.37-10.26,22.25,0-.85,2.74-4.44,5.46-7,3,3.06-.07,3.38-3.9-.5-4-10.31-.27-8.82,12.87-12,20.75-6.25,15.47-16.92,15.33-22.5,41.25-.34,1.59-1.23,3.34-1.5,5-.93,5.74-.7,11.74-1.5,17.5,0,2.94-.81,5.68-1.5,8.5-2.92,12.01-9.88,21.49-19.25,29.5-20.72,17.72-44.09,20.02-56,27-11.27,6.6-18.19,23.42-47.75,29-5.24.99-25.04,2.99-28.75,1.5-1.65-.67-1.22-4.87-1.25-6.5,13.99.49,28.09,1,41.75-2.5l.75-.75c-1.34-.64-2.02-1.81-3-2.75,16.81,1.08,23.39-9.52,25.5-24.75,27.48-6.08,35.51-21,10-39,.94-1.23,9.72,1.93,19.5-1.25-1.85,3.67-23.6.72-15.25,4,.56.22,11.4,1.07,12,1,4.13-.51,10.53-4.25,12.75-7.75,4.39-6.92,4.11-23.9,0-20.75-3.16-14.79-24.41-37.23-21-45,3.49,20.98,11.27,7.59,12.75,7.5.72-.04,10.73,8.32,9,10,4.59,3.66,12.47,9.97,18.5,9,2.29-.37,10.21-5.45,4.75-5,10.9-12.99-11.27-20.22-25.75-33.5-1.43-1.31-14.98-14-11.5-15,.76.88,1.74.83,2.75,1-6.64-1.56,6.98,11.37,7.75,11,.9-.44-2.37-4.98-1-6,13.38,3.09,18.51-1.08,27.25-10.25,2.1-2.21,8.78-9.56,7.5-10.25-1-1.02-13.61,3.49-28.25,2.5-11.11-.75-21.19-4.37-28.75-12.75,16.1-12.2,12.75-13.41,8.5-24.75.91-2.64-1.9-3.03-1-7.75,2.77-14.6,17.33,4.99,25.5,11,.26-11.54-11.36-19.18-22-20.75,4.81-.78,13.49,2.3,17.25,5.5,14.02,11.96-2.66,25.98,8,33.5,11.08,7.81,26.55-7.25,37.5-4.5,6.82,1.71,10.17,10.76,10.25,17Z"/>
            <path class="cls-23" d="M331.72,65.1c-1.6-1.54-1.09-1.77-.5-4,3.88.1,3.56,3.93.5,4Z"/>
            <path class="cls-2" d="M228.22,1.1c10.64,1.57,22.26,9.21,22,20.75-8.17-6.01-22.73-25.6-25.5-11-.9,4.72,1.91,5.11,1,7.75-1.3-3.47-8.02-15.79,2.5-17.5Z"/>
            <path class="cls-2" d="M287.97,39.6c6.96-2.65,12.18,10.39,12.25,14.75.14,8.7-3.06-2.97-4-4.5-6.06-9.87-20.77-6.5-8.25-10.25Z"/>
          </g>
        </g>
        <g>
          <path class="cls-1" d="M309.72,218.1c-4.08,32.77-19.53,64.45-42,88.5-5.99-2.74-11.79-5.7-17.5-9-.93-.53-1.8-3.56-3.5-2-11.34,4.8-8.13-1.25-9.5-4.75-.74-1.89-1.76-3.78-2.5-5.75-.62-1.65.03-4.09-2.5-3,2.21-1.4,2.39-.92,2.5-1-.17.68.29.96.5,1.5,1.74,4.38,2.66,9.06,4.25,13.5,2.12,1.19,7.77-4.68,9.75-2,2.58.64,13.2-10.54,15.5-13.25,15.07-17.75,27.7-46.93,27.5-70.25l-1-13,1.5-20.25,3.75,13.25c4.28-9.16-1.08-38.32-3-38-.5.08.27,1.85-1.25,1.5.69-2.82,1.5-5.56,1.5-8.5,3.65,15.25,12.28,21.88,14.5,41.75.64,5.73-.59,18.53,1.5,16.5,1.13-18.73-3-59.08-11.5-75-2.27-4.25-1.15-1.19-3-.75.27-1.66,1.16-3.41,1.5-5,12.75,28.2,16.8,64.49,13,95Z"/>
          <path class="cls-15" d="M291.22,197.6c-5.96,7.98-3.72-1.12-4-4.75-1.43-18.41-1.31-3.35-2.5,4-2.21,13.67-7.89,25.04-14,37.25-9.96,19.89-18.41,33.64-35.5,48.5-.21-.54-.67-.82-.5-1.5,11.04-8.36,34.39-48.85,36.25-64-1.63,2.66-10.93,28.68-10.25,18.75.12-1.69,3.07-10.43,3-11-.32-2.63-3.26,5.46-5,8.5-8.23,14.41-18.61,26.37-32.75,35.25l14.75-18.25c.56-1.4,10.13-16.91,8.75-17.25-7.64,11.87-16.54,24.13-28.5,32-1.24.82-10.38,6.08-11,6-.21-.03-2.89-2.85-2.75-3.25.76-2.18,20.57-7.76,30.25-33.25l-15.5,15.5c-1.59-.86,11.92-15.1,10-16-4.45,4.84-8.66,10.06-13.25,14.75-1.08,1.1-17.88,18.46-17.5,14.5,3.72-.48,21.3-27.01,19.75-27.75l-12,10c-2.99.29,6.41-8.98,5-9.5-4.19,4.49-30.28,24.37-33.5,25-.81.16-3.58-1.89-4.75-2.25,7.83-5.14,15.45-10.74,22.25-17.25-4.01.98-7.5,3.4-11.5,4.5-5.66,1.56-30.05,4.94-34,4-.48-.11,1.25-1.72-8.75-2.75,1.48-2.59,3.77-.03,5.75-1.25.82-.5-1.09-3.5,11-2.5-.22-3.86,7.7-1.47,8.75-4,29.56-5.58,36.48-22.4,47.75-29,11.91-6.98,35.28-9.28,56-27,9.37-8.01,16.33-17.49,19.25-29.5,1.52.35.75-1.42,1.25-1.5,1.92-.32,7.28,28.84,3,38l-3.75-13.25-1.5,20.25Z"/>
          <path class="cls-17" d="M234.72,281.1c-.11.08-.29-.4-2.5,1-2.89,1.83-6,4.34-9.5,4-1.12-2.63-5.9-6.34-8-8.5-2.25-2.31-4.32-5.16-7-7-1.46-1-1.95-2.35-3.75-2-3.33.54-10.4,2.2-13.25,2-7.06-.5-8.73-5.7-14.25-9.5-2.08-.46-10.44,1.04-13.25,1-3.96-.06-8.04-.2-12-.5l-9.75-10.5c-2.18-.77-10.22-.4-10.75-.5-.28-.05-1.49-.74-5.5-1.5-7.02-1.33-14.12-2.56-21-4.5,1.18-.27,2.78-1.17,4-1.5,2.49,3.56,4.47,1.01,4.75,1,7.39-.34,23.63-2.5,25-4,.53-.58.64-5.65-.75-6,.71.12,1.21-.14,2,.5.03,1.63-.4,5.83,1.25,6.5,3.71,1.49,23.51-.51,28.75-1.5-1.05,2.53-8.97.14-8.75,4-12.09-1-10.18,2-11,2.5-1.98,1.22-4.27-1.34-5.75,1.25,10,1.03,8.27,2.64,8.75,2.75,3.95.94,28.34-2.44,34-4,4-1.1,7.49-3.52,11.5-4.5-6.8,6.51-14.42,12.11-22.25,17.25,1.17.36,3.94,2.41,4.75,2.25,3.22-.63,29.31-20.51,33.5-25,1.41.52-7.99,9.79-5,9.5l12-10c1.55.74-16.03,27.27-19.75,27.75-.38,3.96,16.42-13.4,17.5-14.5,4.59-4.69,8.8-9.91,13.25-14.75,1.92.9-11.59,15.14-10,16l15.5-15.5c-9.68,25.49-29.49,31.07-30.25,33.25-.14.4,2.54,3.22,2.75,3.25.62.08,9.76-5.18,11-6,11.96-7.87,20.86-20.13,28.5-32,1.38.34-8.19,15.85-8.75,17.25l-14.75,18.25c14.14-8.88,24.52-20.84,32.75-35.25,1.74-3.04,4.68-11.13,5-8.5.07.57-2.88,9.31-3,11-.68,9.93,8.62-16.09,10.25-18.75-1.86,15.15-25.21,55.64-36.25,64Z"/>
          <path class="cls-15" d="M293.72,145.6c.8-5.76.57-11.76,1.5-17.5,1.85-.44.73-3.5,3,.75,8.5,15.92,12.63,56.27,11.5,75-2.09,2.03-.86-10.77-1.5-16.5-2.22-19.87-10.85-26.5-14.5-41.75Z"/>
          <path class="cls-17" d="M282.22,242.1c-7.75,20.01-16.41,37.67-33,52-1.98-2.68-7.63,3.19-9.75,2-1.59-4.44-2.51-9.12-4.25-13.5,17.09-14.86,25.54-28.61,35.5-48.5,5.58-1.64,9.67,3.44,11.5,8Z"/>
          <path class="cls-15" d="M291.22,197.6l1,13c-2.29,10.3-6.03,21.24-10,31.5-1.83-4.56-5.92-9.64-11.5-8,6.11-12.21,11.79-23.58,14-37.25,1.19-7.35,1.07-22.41,2.5-4,.28,3.63-1.96,12.73,4,4.75Z"/>
          <path class="cls-15" d="M249.22,294.1c16.59-14.33,25.25-31.99,33-52,3.97-10.26,7.71-21.2,10-31.5.2,23.32-12.43,52.5-27.5,70.25-2.3,2.71-12.92,13.89-15.5,13.25Z"/>
          <path class="cls-15" d="M137.22,234.1c1.39.35,1.28,5.42.75,6-1.37,1.5-17.61,3.66-25,4-.28.01-2.26,2.56-4.75-1,9.21-2.47,18.29-5.62,27-9.5.44.1.82.3,2,.5Z"/>
        </g>
      </g>
      <g>
        <path class="cls-13" d="M44.22,120.1c-19.2,19.01-21.75,39-21,65,.13,4.47.34,9.59,1,14,1.69,11.27,6.27,22.05,14.75,30,12.86,12.05,35.32,19.36,52.75,18l1,.25c-1.81.95-9.08,3.11-10.75,3.25-13.29,1.13-52.71-15.91-60.75-27-1.78-2.46-2.46-6.17-4-6-2.21-11.03-4.95-15.31-5-29.5-.02-4.95.42-10.83,1-15.75.61-5.22,4.16-15.53,2.5-18.25,4.77-11.4,9.5-19.01,18-28,1.28,6.83,5.97-4.93,10.5-6Z"/>
        <path class="cls-25" d="M28.72,257.6c17.74,34.5,56.28,67.09,96.5,67,.16,6.37,22.41,8.17,27.75,8,11.86-.37,32.54-8.52,28.25-1-10.74,5.73-20.19,7.26-32,9.25.32,1.99,32.97-3.11,36-3.75,19.47-4.11,32.68-10.42,48-23,6.17-5.07,11.96-10.22,17-16.5,5.71,3.3,11.51,6.26,17.5,9-46.44,49.72-119.25,64.69-180.25,32.5-34.01-17.95-61.88-50.65-74.25-87,2.46,1.48,6.38,15.71,7.75,16,4.16.88-2.53-6.1-1.75-7.25,3.63-.61,7.62-5.36,9.5-3.25Z"/>
        <path class="cls-11" d="M12.22,188.1c.05,14.19,2.79,18.47,5,29.5,3.23,16.07,3.29,24.03,11.5,40-1.88-2.11-5.87,2.64-9.5,3.25-.78,1.15,5.91,8.13,1.75,7.25-1.37-.29-5.29-14.52-7.75-16-8.6-25.26-10.32-47.77-5-74,.77,5.27-2.41,6.25,4,10Z"/>
        <path class="cls-12" d="M12.22,188.1c-6.41-3.75-3.23-4.73-4-10,1.66-8.21,4.27-16.28,7.5-24,1.66,2.72-1.89,13.03-2.5,18.25-.58,4.92-1.02,10.8-1,15.75Z"/>
        <path class="cls-11" d="M246.72,295.6c-3.35,4.53-10.96,13.05-15,16.5-6.78,5.79-24.04,16.15-32.25,19.5-.35.14-1.3.13-1.25-.5,13.77-8,27.01-23.24,25.5-40l11-6c.74,1.97,1.76,3.86,2.5,5.75,1.37,3.5-1.84,9.55,9.5,4.75Z"/>
        <path class="cls-12" d="M250.22,297.6c-5.04,6.28-10.83,11.43-17,16.5l-1.5-2c4.04-3.45,11.65-11.97,15-16.5,1.7-1.56,2.57,1.47,3.5,2Z"/>
        <path class="cls-11" d="M234.72,285.1l-11,6c-.16-1.76-.3-3.35-1-5,3.5.34,6.61-2.17,9.5-4,2.53-1.09,1.88,1.35,2.5,3Z"/>
        <path class="cls-11" d="M21.22,223.6c8.04,11.09,47.46,28.13,60.75,27,1.67-.14,8.94-2.3,10.75-3.25l-1-.25c2.05-.16,9.85-1.89,12.5-2.5,6.88,1.94,13.98,3.17,21,4.5-7.97,9.79-20.07,15.76-31.75,20,13.13-.87,29.52-7.36,37.25-18.5.53.1,8.57-.27,10.75.5l9.75,10.5c-27.57,40.91-68.66,35.1-100.75,3,23.58,39.32,100.7,52.27,112.75-2.5,2.81.04,11.17-1.46,13.25-1,5.52,3.8,7.19,9,14.25,9.5v.5c-8.68-1.77-4.32,2.17-11,14.25-19.7,35.64-67.43,37.89-100.25,20.75-25.17-13.15-49.28-44.48-56.75-71.75-.54-1.97-2.72-11.68-1.5-10.75Z"/>
        <path class="cls-12" d="M21.22,223.6c-1.22-.93.96,8.78,1.5,10.75,7.47,27.27,31.58,58.6,56.75,71.75,32.82,17.14,80.55,14.89,100.25-20.75,6.68-12.08,2.32-16.02,11-14.25,0,.83,0,1.67,0,2.5-.3,33.57-35.89,50.93-65.5,51-40.22.09-78.76-32.5-96.5-67-8.21-15.97-8.27-23.93-11.5-40,1.54-.17,2.22,3.54,4,6Z"/>
        <path class="cls-11" d="M214.72,277.6c-1.88,21.62-14.06,43.63-33.5,54,4.29-7.52-16.39.63-28.25,1-5.34.17-27.59-1.63-27.75-8,29.61-.07,65.2-17.43,65.5-51,5.59-.93,15.81-.71,17-3,2.68,1.84,4.75,4.69,7,7Z"/>
        <path class="cls-13" d="M163.22,262.1c-12.05,54.77-89.17,41.82-112.75,2.5,32.09,32.1,73.18,37.91,100.75-3,3.96.3,8.04.44,12,.5Z"/>
        <path class="cls-12" d="M222.72,286.1c.7,1.65.84,3.24,1,5,1.51,16.76-11.73,32-25.5,40-7.8,4.53-12.14,4.67-12.75,5-.41.22-.25.65-.25,1-3.03.64-35.68,5.74-36,3.75,11.81-1.99,21.26-3.52,32-9.25,19.44-10.37,31.62-32.38,33.5-54,2.1,2.16,6.88,5.87,8,8.5Z"/>
        <path class="cls-13" d="M130.72,250.6c-7.73,11.14-24.12,17.63-37.25,18.5,11.68-4.24,23.78-10.21,31.75-20,4.01.76,5.22,1.45,5.5,1.5Z"/>
        <path class="cls-12" d="M207.72,270.6c-1.19,2.29-11.41,2.07-17,3,0-.83,0-1.67,0-2.5v-.5c2.85.2,9.92-1.46,13.25-2,1.8-.35,2.29,1,3.75,2Z"/>
        <path class="cls-14" d="M233.22,314.1c-15.32,12.58-28.53,18.89-48,23,0-.35-.16-.78.25-1,.61-.33,4.95-.47,12.75-5-.05.63.9.64,1.25.5,8.21-3.35,25.47-13.71,32.25-19.5l1.5,2Z"/>
      </g>
      <g>
        <path class="cls-19" d="M176.22,146.1c1.28.97,1.28,2.64,2.75,3.5.51.24-.1-2.2-.25-3.5.79.64,1.3.37,2,.5,2.14.39,4.07.38,4.25.5.53.34,6.8,12.19,1.25.75,5.27-2.93,2.26,3.27,5.5-.25.17-.18.97-.94,1-1,.66.38,1.84.82,2,1,1.87,2.17-2.35,3.39-3.75,6.5-10.4-3.07-9.65,8.73-19.75,6.25,15.45-8.22,16.99-12.85-.25-1.75-2.04.26-1.66-.53-1.75-.5,8.6-8.05,4.23-9.16,4.5-12.5.92-.06,1.72-.09,2.5.5Z"/>
        <path class="cls-19" d="M168.72,158.1c-8.82,3.06-7.03,6.08-11.5,12.5-.42-9.93,1.86-20.35,9.75-27,2.07,5.03,4.8,9.24,1.75,14.5Z"/>
        <path class="cls-19" d="M152.22,161.6l1,1.25c-.21,3.55.29,7.21,0,10.75-6.34-5.69-11.37-12.51-16.5-19.25,7.36-4.64,9.63,4.27,15.5,7.25Z"/>
        <g>
          <path class="cls-3" d="M204.22,147.6c-1.83.54-4.78.49-6.75.5-6.21,10.98-8.93,5.4-13.5,7.5-2.86,1.31-1.5,9.52-16.5,6.5-10.88,1.13-8.87,33.2-7.25,40.25,2.5,10.88,10.86,18.92,18.5,26.25.98.94,1.66,2.11,3,2.75l-.75.75c-13.66,3.5-27.76,2.99-41.75,2.5-.79-.64-1.29-.38-2-.5-1.18-.2-1.56-.4-2-.5-4.19-.96-3.32-1.45-3.5-1.5,20.01-13.09,23.02-28.43,22.5-51.25-.84-1.75-1.55-3.56-2.5-5.25,2.97-1.53,1.49-1.84,1.5-2,.29-3.54-.21-7.2,0-10.75l-1-1.25c-.94-1.2-.05-1.34,0-2.5.07-1.63.19-4.67,0-6,11.79-1.64,4.1.4,3.5,17.75,2.78,2.03,1.42-.13,1.5-.25,4.47-6.42,2.68-9.44,11.5-12.5.15-.05.35.05.5,0,.09-.03-.29.76,1.75.5,17.24-11.1,15.7-6.47.25,1.75,10.1,2.48,9.35-9.32,19.75-6.25,1.4-3.11,5.62-4.33,3.75-6.5-.03-.78.69-.38,1-.5,5.03.46,9.19-1.09,8.5.5Z"/>
          <path class="cls-24" d="M158.47,210.1c.4,3.7,4.25,10.14,3.75,13.25-1.06,6.58-13.33,6.16-3.75-13.25Z"/>
        </g>
        <path class="cls-19" d="M151.22,150.6c-.08,1.15.79,1.07,1,2.5.19,1.33.07,4.37,0,6-.35.54-7.98-6.19-8-6.75-.02-.77.77-.55,2-2.25.11-.15,1.23-.26,2-3,.88,1.39,1.35,2.64,3,3.5Z"/>
        <g>
          <path class="cls-18" d="M203.22,125.6c-1.08,2.31,3.17,4.82,3.5,7.25,1.01,7.51-9.55,2.92-9.75-1.75-1.11.7-2.15.93-2.25,1-.43-2.75-.09-4.61-3.25-9-2.1-.24,2.27,7.01-.25,8.75-2.9,2,.01-11.65-7.25-.25,1.36-5.58.79-14.55-.75-3.25-7.28-.91-7.69,6.45-12.5,10.25-1.71-.79,3.9-6.54,6-10.75l-5.5,5.75c-5.5-3.38-1.19-2.01,1.25-7.5-2.26,1.04-5.52,4.66-7.25,3.5.05-.15-.04-.35,0-.5.38-1.31,3.22-10.34,3.75-10.5,6.61,5.37,15.48,1.21,22.75-.5,7.3,2.26,6.37,2.4,11.5,7.5Z"/>
          <path class="cls-18" d="M204.22,147.6c.69-1.59-3.47-.04-8.5-.5,2.04-.76,11.09-5.93,10.5-7.25-8.28,2.8-7.63-2.22-8.25-2.25-.87-.04-.91,2.94-2,3-2,.12-.92-6.37-1.25-8.5.1-.07,1.14-.3,2.25-1,.2,4.67,10.76,9.26,9.75,1.75-.33-2.43-4.58-4.94-3.5-7.25.64.63.44,1.68.5,1.75.96,1.05,7.76,3.64,8,12,.17,5.74-2.62,6.8-7.5,8.25Z"/>
          <path class="cls-9" d="M121.72,149.1c.67,2.87,3.25,6.24,6,3.5.17-.17.32-.32.5-.5,6.75-.87,5.9.98,6.25,1,2.96.21,6-1.67,9-.5.44-.07-2.63-2.1,2.75-2.5-1.23,1.7-2.02,1.48-2,2.25.02.56,7.65,7.29,8,6.75-.05,1.16-.94,1.3,0,2.5-5.87-2.98-8.14-11.89-15.5-7.25,5.13,6.74,10.16,13.56,16.5,19.25-.01.16,1.47.47-1.5,2-1.95-3.49-12.67-13.78-16.75-22-10.32,5.16-12.51,3.1-17.25-8,3.03-.2,4.89-4.96,6.5-7,2.64,2.34-3.36,6.8-2.5,10.5Z"/>
          <path class="cls-18" d="M127.22,134.1c-.72.38-2.22,3.52-3,4.5-1.61,2.04-3.47,6.8-6.5,7-2.47-5.78,1.07-7.94,4.5-15,.28.16,3.2-.21,5,3.5Z"/>
          <path class="cls-9" d="M195.72,147.1c-.31.12-1.03-.28-1,.5-.16-.18-1.34-.62-2-1,1.58-3.33.31-5.63-1.5-8.75,2.5-.86,1.4-4.14,3.5-5.75.33,2.13-.75,8.62,1.25,8.5,1.09-.06,1.13-3.04,2-3,.62.03-.03,5.05,8.25,2.25.59,1.32-8.46,6.49-10.5,7.25Z"/>
          <path class="cls-18" d="M155.22,149.6c-.14-.01-.37-.03-.5,0l-8.75-10.5c-1.27.12-.05,3.03.25,4-8.61,2.49-6.34,7.35-12.75-2-1.1.41,1.99,5.63,1.75,6.25-1.99,5.14-7.19-5.43-5,2-3.6,1.67-1.86,2.61-2,2.75-.18.18-.33.33-.5.5l-6-3.5c-.86-3.7,5.14-8.16,2.5-10.5.78-.98,2.28-4.12,3-4.5,3.18-1.69,11,2.52,12.25,2.5,2.4-.03,2.83-2.76,4.5-2.5.97.15,11.85,13.48,11.25,15.5Z"/>
          <path class="cls-18" d="M164.72,116.6c.9.59,2.38.83,2.5,2.25-1.73,3.03-2.27,6.55-3.5,9.75-2.45,6.4-2.83,7.78-8,13-9.63-5.75-.85-7.98-.5-9.75.43-2.2-3.99-3.85-2-12.75,4.62.66,6.87-1.43,8.5-2,1.94-.68,2.28.28,3-.5Z"/>
          <path class="cls-18" d="M156.22,113.1l5.5,4c-1.63.57-3.88,2.66-8.5,2,.32-1.41,1.66-6.05,3-6Z"/>
          <path class="cls-6" d="M155.72,149.6c2.04-1.71-1.08-2.42,4-6,1.9,4.8-2.29,7.49-2.75,7.5-.38.01-1.15-1.5-1.25-1.5Z"/>
          <g>
            <path class="cls-5" d="M172.22,90.6c-2.2,1.11,3.86,6.83-.75,8-4.43,1.12-7.01-6.28-7.5-6.5-.09-.04-1.19.96-1.75,1-1.11.08-1.37.69-1.75.5-1.14-.57-4.2-7.14-1.75-8.5,4.98-.09,10.42,1.17,13.5,5.5Z"/>
            <path class="cls-18" d="M158.72,85.1c-2.45,1.36.61,7.93,1.75,8.5.38.19.64-.42,1.75-.5.19,1.19-.5.94-.5,1l-10,2c-1.84-2.39-4.11-5.6-5-8.5,2.69-.9,9.45-2.45,12-2.5Z"/>
            <path class="cls-7" d="M203.22,105.6v8c-8.52,3.14-9.8-1.81-15.5,3.5,1.53-2.36,4.55-5.12.5-6.5.43-.6,1.09-1.17,1-2,2.72.78,5.23,1.43,8,.5,2.03-.68,3.38-3.27,6-3.5Z"/>
            <path class="cls-18" d="M189.22,108.6c.09.83-.57,1.4-1,2-2.28,3.14-5.69,6.2-9.75,6.5,7.73-10.3,3.86-6.05-2.5-.5l-5.75-2.75c.96-1.19,2.75-3.11,3.5-4.25,3.24-1.09,6.71-.36,10-.5.05,0-.18.82.25,1,.36-1.85,2.38-1.35,3.25-2.5.2.47,1.5.86,2,1Z"/>
            <path class="cls-7" d="M161.72,94.1c0,.43,1.04,1.05.25,2-.41.49-6.59,2.79-8,3.5-1.64-1.3-2.12-3.34-2.25-3.5l10-2Z"/>
            <g>
              <path class="cls-18" d="M146.72,87.6c.89,2.9,3.16,6.11,5,8.5.13.16.61,2.2,2.25,3.5,1.41-.71,7.59-3.01,8-3.5.79-.95-.24-1.57-.25-2,0-.06.69.19.5-1,.56-.04,1.66-1.04,1.75-1,.49.22,3.07,7.62,7.5,6.5,4.61-1.17-1.45-6.89.75-8l1.25.5c6.03-4.06,12.59-6.3,17,1,8.46-4.73,7,2.24,8.5,3.5.52.44,7.64,1.41,8.75,9.25,1,7.08-1.68,7.71-4.5,8.75v-8c-4.72-14.88-1.44-7.71-6,3.5-2.77.93-5.28.28-8-.5-.5-.14-1.8-.53-2-1,2.73-3.64-1.21-7.42,7-11.75l-6.75,1.25-.5,3.5c-10.1-9.32,1.94,1.8-3.25,8.5-3.29.14-6.76-.59-10,.5,2.78-4.21,5.83-8.88,1.5-5.25-.36.3,1.08.98-.25,1.75-4.5,2.1-17.71,11.48-7,.5-11.58,3.64-10.36-.53-7-.5.48,0,.85,1.51,1,1.5.46-.02,7.5-5.86,5.5-6l-15.5,6-10-9c-.06,2.38-2.51,6.09-2.25,7.25.49,2.21,12.65,4.31,3.5,13.5,13.36-4.7,7.5-7.34,7,6-9.12-7.69,3,5.72,3,6.5,0,.61-3.17,1.73-3.75,3.75-2.16-3.98-6.41-5.17-6.75-5.75-.21-.36,1.18-1.8.25-2.25-.47-.23-8.77,3.81-10,3-.31-.21-1.59-6.68-2.5-7l-13.25,3.5c-2.66-4.42-.91-10.9,3.5-13.5,4.26,1.61,10.21,5.71,13.25,0,15.01,15.58,5.48-.72-4.25-3.5,1.84-2.11-.8-5.7,8-5.25-3.39-5.41,3.51-14.8,6.25-16.75,2.09-1.49,2.51-.42,2.75-.5Z"/>
              <path class="cls-7" d="M120.72,113.6c2.76-1.62,7.33-1.59,9-3.5,9.73,2.78,19.26,19.08,4.25,3.5-3.04,5.71-8.99,1.61-13.25,0Z"/>
              <path class="cls-7" d="M187.22,107.6c-.87,1.15-2.89.65-3.25,2.5-.43-.18-.2-1-.25-1,5.19-6.7-6.85-17.82,3.25-8.5l.5-3.5,6.75-1.25c-8.21,4.33-4.27,8.11-7,11.75Z"/>
              <path class="cls-5" d="M181.47,89.1c4.12,1.49-2.88,8.01-5.5,7-.19-.07-1.83-3.56-1.75-3.75.15-.37,6.88-3.39,7.25-3.25Z"/>
              <path class="cls-7" d="M203.22,105.6c-2.62.23-3.97,2.82-6,3.5,4.56-11.21,1.28-18.38,6-3.5Z"/>
            </g>
            <g>
              <path class="cls-9" d="M173.72,109.6c-.75,1.14-2.54,3.06-3.5,4.25l5.75,2.75c6.36-5.55,10.23-9.8,2.5.5,4.06-.3,7.47-3.36,9.75-6.5,4.05,1.38,1.03,4.14-.5,6.5-.12.85,3.54.86,4,1-7.27,1.71-16.14,5.87-22.75.5-.53.16-3.37,9.19-3.75,10.5l-1.5-.5c1.23-3.2,1.77-6.72,3.5-9.75-.12-1.42-1.6-1.66-2.5-2.25-1.64-1.07-6.29-2.37-8.5-3.5-1.34-.05-2.68,4.59-3,6-1.99,8.9,2.43,10.55,2,12.75-.35,1.77-9.13,4,.5,9.75.16.1.85,1.59,3.25.5,2.06.99.56,1.02.75,1.5-5.08,3.58-1.96,4.29-4,6-.16,0-.34.01-.5,0,.6-2.02-10.28-15.35-11.25-15.5-1.67-.26-2.1,2.47-4.5,2.5-1.25.02-9.07-4.19-12.25-2.5-1.8-3.71-4.72-3.34-5-3.5-1.58-.87-4.1-2.01-5-3.5l13.25-3.5c.91.32,2.19,6.79,2.5,7,1.23.81,9.53-3.23,10-3,.93.45-.46,1.89-.25,2.25.34.58,4.59,1.77,6.75,5.75.58-2.02,3.75-3.14,3.75-3.75,0-.78-12.12-14.19-3-6.5.5-13.34,6.36-10.7-7-6,9.15-9.19-3.01-11.29-3.5-13.5-.26-1.16,2.19-4.87,2.25-7.25l10,9,15.5-6c2,.14-5.04,5.98-5.5,6-.15,0-.52-1.5-1-1.5-3.36-.03-4.58,4.14,7,.5-10.71,10.98,2.5,1.6,7-.5,1.33-.77-.11-1.45.25-1.75,4.33-3.63,1.28,1.04-1.5,5.25Z"/>
              <path class="cls-18" d="M146.47,108.1l6.75,3.75-4.75,3.75-2-7.5Z"/>
              <path class="cls-16" d="M164.72,116.6c-.72.78-1.06-.18-3,.5l-5.5-4c2.21,1.13,6.86,2.43,8.5,3.5Z"/>
            </g>
          </g>
          <path class="cls-8" d="M194.72,132.1c-2.1,1.61-1,4.89-3.5,5.75,1.81,3.12,3.08,5.42,1.5,8.75-.03.06-.83.82-1,1-1.1-2.81-7.67.42-1-3.25-1.67-7.09-3.25.16-4.25-.25-.88-.36,2.87-8.33-5.75,2.5-.7-.13-1.21.14-2-.5-.09-.79-1.21-.22-1-1.25,11.5-11.05,1.65-7.29-1.5,1.25-.78-.59-1.58-.56-2.5-.5.22-2.77,5.99-6.44,6.5-9.75l-9.5,2.75c4.81-3.8,5.22-11.16,12.5-10.25,1.54-11.3,2.11-2.33.75,3.25,7.26-11.4,4.35,2.25,7.25.25,2.52-1.74-1.85-8.99.25-8.75,3.16,4.39,2.82,6.25,3.25,9Z"/>
          <path class="cls-7" d="M171.22,133.6l-4.25,5c-5.38-3.58-4.16-.89-1.75-9,1.73,1.16,4.99-2.46,7.25-3.5-2.44,5.49-6.75,4.12-1.25,7.5Z"/>
          <path class="cls-7" d="M146.22,143.1c.19.63,1.55,3.29,2,4-.77,2.74-1.89,2.85-2,3-5.38.4-2.31,2.43-2.75,2.5-3-1.17-6.04.71-9,.5-.35-.02.5-1.87-6.25-1,.14-.14-1.6-1.08,2-2.75-2.19-7.43,3.01,3.14,5-2,.24-.62-2.85-5.84-1.75-6.25,6.41,9.35,4.14,4.49,12.75,2Z"/>
          <path class="cls-19" d="M127.72,152.6c-2.75,2.74-5.33-.63-6-3.5l6,3.5Z"/>
          <path class="cls-9" d="M154.72,149.6c-1.94.51-.57,2.52-3.5,1-1.65-.86-2.12-2.11-3-3.5-.45-.71-1.81-3.37-2-4-.3-.97-1.52-3.88-.25-4l8.75,10.5Z"/>
          <g>
            <path class="cls-9" d="M170.72,138.6l9.5-2.75c-.51,3.31-6.28,6.98-6.5,9.75-.27,3.34,4.1,4.45-4.5,12.5-.15.05-.35-.05-.5,0,3.05-5.26.32-9.47-1.75-14.5-7.89,6.65-10.17,17.07-9.75,27-.08.12,1.28,2.28-1.5.25.6-17.35,8.29-19.39-3.5-17.75-.21-1.43-1.08-1.35-1-2.5,2.93,1.52,1.56-.49,3.5-1,.13-.03.36-.01.5,0,.16.01.34,0,.5,0,.1,0,.87,1.51,1.25,1.5.46-.01,4.65-2.7,2.75-7.5-.19-.48,1.31-.51-.75-1.5-2.4,1.09-3.09-.4-3.25-.5,5.17-5.22,5.55-6.6,8-13l1.5.5c-.04.15.05.35,0,.5-2.41,8.11-3.63,5.42,1.75,9l4.25-5,5.5-5.75c-2.1,4.21-7.71,9.96-6,10.75Z"/>
            <path class="cls-19" d="M169.47,144.1c4.05,1.39,5.48,7.12,2,10-.24-4.93-3.47-9.72-2-10Z"/>
            <path class="cls-19" d="M161.97,141.1c2.18-.93.1,2.77-.5,2.5-.69-.31.24-2.39.5-2.5Z"/>
          </g>
          <path class="cls-4" d="M191.72,147.6c-3.24,3.52-.23-2.68-5.5.25,5.55,11.44-.72-.41-1.25-.75-.18-.12-2.11-.11-4.25-.5,8.62-10.83,4.87-2.86,5.75-2.5,1,.41,2.58-6.84,4.25.25-6.67,3.67-.1.44,1,3.25Z"/>
          <path class="cls-7" d="M178.72,146.1c.15,1.3.76,3.74.25,3.5-1.47-.86-1.47-2.53-2.75-3.5,3.15-8.54,13-12.3,1.5-1.25-.21,1.03.91.46,1,1.25Z"/>
        </g>
      </g>
    </g>
  </g>
</svg>